<svg width="24" height="25" viewBox="0 0 24 25" fill="none" xmlns="http://www.w3.org/2000/svg">
<path fill-rule="evenodd" clip-rule="evenodd" d="M20.5 7.81543H3.5C3.22386 7.81543 3 7.59157 3 7.31543V6.31543C3 6.03929 3.22386 5.81543 3.5 5.81543H20.5C20.7761 5.81543 21 6.03929 21 6.31543V7.31543C21 7.59157 20.7761 7.81543 20.5 7.81543ZM21 13.3154V12.3154C21 12.0393 20.7761 11.8154 20.5 11.8154H3.5C3.22386 11.8154 3 12.0393 3 12.3154V13.3154C3 13.5916 3.22386 13.8154 3.5 13.8154H20.5C20.7761 13.8154 21 13.5916 21 13.3154ZM21 18.3154V19.3154C21 19.5916 20.7761 19.8154 20.5 19.8154H3.5C3.22386 19.8154 3 19.5916 3 19.3154V18.3154C3 18.0393 3.22386 17.8154 3.5 17.8154H20.5C20.7761 17.8154 21 18.0393 21 18.3154Z" fill="#2A4C31"/>
<path fill-rule="evenodd" clip-rule="evenodd" d="M20.5 7.81543H3.5C3.22386 7.81543 3 7.59157 3 7.31543V6.31543C3 6.03929 3.22386 5.81543 3.5 5.81543H20.5C20.7761 5.81543 21 6.03929 21 6.31543V7.31543C21 7.59157 20.7761 7.81543 20.5 7.81543ZM21 13.3154V12.3154C21 12.0393 20.7761 11.8154 20.5 11.8154H3.5C3.22386 11.8154 3 12.0393 3 12.3154V13.3154C3 13.5916 3.22386 13.8154 3.5 13.8154H20.5C20.7761 13.8154 21 13.5916 21 13.3154ZM21 18.3154V19.3154C21 19.5916 20.7761 19.8154 20.5 19.8154H3.5C3.22386 19.8154 3 19.5916 3 19.3154V18.3154C3 18.0393 3.22386 17.8154 3.5 17.8154H20.5C20.7761 17.8154 21 18.0393 21 18.3154Z" fill="black" fill-opacity="0.2"/>
</svg>
